<svg width="900" height="600" xmlns="http://www.w3.org/2000/svg" version="1.1">


 <g class="currentLayer">
  <title>Layer 1</title>
  <rect id="svg_1" fill="#17161d" height="600" width="900" y="0" x="0"/>
  <g id="svg_2">
   <path id="svg_3" fill="#9546f0" d="m386.2,600c70.7,-32.7 141.3,-65.4 147.6,-119c6.3,-53.6 -51.7,-128 -49.5,-183c2.3,-55 64.9,-90.4 122.4,-101.7c57.5,-11.3 109.9,1.5 158,-12.9c48,-14.3 91.6,-55.7 135.3,-97.2l0,513.8l-513.8,0z"/>
  </g>
 </g>
 <g>
  <title>Layer 2</title>
  <rect fill="none" y="0" x="0" height="100%" width="100%" id="backgroundrect"/>
  <g>
   <rect fill="none" y="-95" x="-59" height="600" width="900" id="svg_20"/>










   <g class="currentLayer">
    <title>Layer 1</title>
    <g id="svg_4">
     <path id="svg_9" fill="#211e35" d="m400.7,-95c-36.6,27.1 -73.1,54.2 -86.3,85.2c-13.2,31 -2.9,65.9 -21.1,84.4c-18.2,18.6 -64.9,20.7 -80.2,47.4c-15.4,26.6 0.5,77.7 -5.9,116.8c-6.4,39.2 -35,66.3 -66.7,80.4c-31.8,14.1 -66.5,15.2 -100.3,20.6c-33.7,5.4 -66.5,15.2 -99.2,24.9l0,-459.7l459.7,0z"/>
     <path id="svg_8" fill="#382d69" d="m308.8,-95c-29.3,21.7 -58.6,43.4 -69.1,68.2c-10.5,24.8 -2.3,52.7 -16.9,67.5c-14.5,14.8 -51.8,16.6 -64.1,37.9c-12.3,21.3 0.4,62.2 -4.7,93.5c-5.1,31.3 -28.1,53 -53.4,64.2c-25.4,11.3 -53.2,12.2 -80.2,16.6c-27,4.3 -53.2,12.1 -79.4,19.9l0,-367.8l367.8,0z"/>
     <path id="svg_7" fill="#563b9f" d="m216.8,-95c-21.9,16.3 -43.9,32.5 -51.8,51.1c-7.9,18.6 -1.7,39.6 -12.6,50.7c-11,11.1 -38.9,12.4 -48.2,28.4c-9.2,16 0.4,46.6 -3.5,70.1c-3.8,23.5 -21,39.7 -40,48.2c-19.1,8.5 -39.9,9.1 -60.2,12.4c-20.2,3.2 -39.9,9.1 -59.5,14.9l0,-275.8l275.8,0z"/>
     <path id="svg_6" fill="#7e44d5" d="m124.9,-95c-14.6,10.8 -29.3,21.7 -34.5,34.1c-5.3,12.4 -1.2,26.3 -8.5,33.8c-7.3,7.4 -25.9,8.2 -32.1,18.9c-6.1,10.6 0.2,31.1 -2.3,46.7c-2.6,15.7 -14,26.5 -26.7,32.2c-12.7,5.6 -26.6,6.1 -40.1,8.2c-13.5,2.2 -26.6,6.1 -39.7,10l0,-183.9l183.9,0z"/>
     <path id="svg_5" fill="#9546f0" d="m32.9,-95c-7.3,5.4 -14.6,10.8 -17.2,17c-2.7,6.2 -0.6,13.2 -4.2,16.9c-3.7,3.7 -13,4.2 -16.1,9.5c-3.1,5.3 0.1,15.5 -1.2,23.4c-1.2,7.8 -7,13.2 -13.3,16c-6.4,2.9 -13.3,3.1 -20.1,4.2c-6.7,1 -13.3,3 -19.8,4.9l0,-91.9l91.9,0z"/>
    </g>
   </g>
  </g>
 </g>
</svg>