<svg id="visual" viewBox="0 0 900 600" width="900" height="600" xmlns="http://www.w3.org/2000/svg" xmlns:xlink="http://www.w3.org/1999/xlink" version="1.1"><rect x="0" y="0" width="900" height="600" fill="#17161d"></rect><defs><linearGradient id="grad1_0" x1="33.3%" y1="100%" x2="100%" y2="0%"><stop offset="20%" stop-color="#9546f0" stop-opacity="1"></stop><stop offset="80%" stop-color="#9546f0" stop-opacity="1"></stop></linearGradient></defs><defs><linearGradient id="grad1_1" x1="33.3%" y1="100%" x2="100%" y2="0%"><stop offset="20%" stop-color="#9546f0" stop-opacity="1"></stop><stop offset="80%" stop-color="#6940ba" stop-opacity="1"></stop></linearGradient></defs><defs><linearGradient id="grad1_2" x1="33.3%" y1="100%" x2="100%" y2="0%"><stop offset="20%" stop-color="#463484" stop-opacity="1"></stop><stop offset="80%" stop-color="#6940ba" stop-opacity="1"></stop></linearGradient></defs><defs><linearGradient id="grad1_3" x1="33.3%" y1="100%" x2="100%" y2="0%"><stop offset="20%" stop-color="#463484" stop-opacity="1"></stop><stop offset="80%" stop-color="#2c264f" stop-opacity="1"></stop></linearGradient></defs><defs><linearGradient id="grad1_4" x1="33.3%" y1="100%" x2="100%" y2="0%"><stop offset="20%" stop-color="#17161d" stop-opacity="1"></stop><stop offset="80%" stop-color="#2c264f" stop-opacity="1"></stop></linearGradient></defs><defs><linearGradient id="grad2_0" x1="0%" y1="100%" x2="66.7%" y2="0%"><stop offset="20%" stop-color="#9546f0" stop-opacity="1"></stop><stop offset="80%" stop-color="#9546f0" stop-opacity="1"></stop></linearGradient></defs><defs><linearGradient id="grad2_1" x1="0%" y1="100%" x2="66.7%" y2="0%"><stop offset="20%" stop-color="#6940ba" stop-opacity="1"></stop><stop offset="80%" stop-color="#9546f0" stop-opacity="1"></stop></linearGradient></defs><defs><linearGradient id="grad2_2" x1="0%" y1="100%" x2="66.7%" y2="0%"><stop offset="20%" stop-color="#6940ba" stop-opacity="1"></stop><stop offset="80%" stop-color="#463484" stop-opacity="1"></stop></linearGradient></defs><defs><linearGradient id="grad2_3" x1="0%" y1="100%" x2="66.7%" y2="0%"><stop offset="20%" stop-color="#2c264f" stop-opacity="1"></stop><stop offset="80%" stop-color="#463484" stop-opacity="1"></stop></linearGradient></defs><defs><linearGradient id="grad2_4" x1="0%" y1="100%" x2="66.7%" y2="0%"><stop offset="20%" stop-color="#2c264f" stop-opacity="1"></stop><stop offset="80%" stop-color="#17161d" stop-opacity="1"></stop></linearGradient></defs><g transform="translate(900, 600)"><path d="M-216.3 0C-201.6 -13 -186.9 -25.9 -184.3 -42.1C-181.6 -58.2 -191.1 -77.5 -186.5 -89.8C-181.9 -102.2 -163.4 -107.6 -154.8 -123.5C-146.3 -139.3 -147.7 -165.5 -133.4 -167.3C-119.1 -169.1 -89 -146.6 -73.8 -153.2C-58.5 -159.8 -58 -195.5 -48.1 -210.9C-38.3 -226.3 -19.2 -221.3 0 -216.3L0 0Z" fill="#211e35"></path><path d="M-173.1 0C-161.3 -10.4 -149.5 -20.7 -147.4 -33.6C-145.3 -46.5 -152.9 -62 -149.2 -71.9C-145.5 -81.7 -130.7 -86.1 -123.8 -98.8C-117 -111.4 -118.2 -132.4 -106.7 -133.8C-95.3 -135.3 -71.2 -117.3 -59 -122.5C-46.8 -127.8 -46.4 -156.4 -38.5 -168.7C-30.6 -181 -15.3 -177.1 0 -173.1L0 0Z" fill="#382d69"></path><path d="M-129.8 0C-121 -7.8 -112.1 -15.6 -110.6 -25.2C-109 -34.9 -114.6 -46.5 -111.9 -53.9C-109.2 -61.3 -98 -64.6 -92.9 -74.1C-87.8 -83.6 -88.6 -99.3 -80.1 -100.4C-71.5 -101.5 -53.4 -87.9 -44.3 -91.9C-35.1 -95.9 -34.8 -117.3 -28.9 -126.5C-23 -135.8 -11.5 -132.8 0 -129.8L0 0Z" fill="#563b9f"></path><path d="M-86.5 0C-80.6 -5.2 -74.8 -10.4 -73.7 -16.8C-72.6 -23.3 -76.4 -31 -74.6 -35.9C-72.8 -40.9 -65.3 -43 -61.9 -49.4C-58.5 -55.7 -59.1 -66.2 -53.4 -66.9C-47.7 -67.7 -35.6 -58.6 -29.5 -61.3C-23.4 -63.9 -23.2 -78.2 -19.3 -84.4C-15.3 -90.5 -7.7 -88.5 0 -86.5L0 0Z" fill="#7e44d5"></path><path d="M-43.3 0C-40.3 -2.6 -37.4 -5.2 -36.9 -8.4C-36.3 -11.6 -38.2 -15.5 -37.3 -18C-36.4 -20.4 -32.7 -21.5 -31 -24.7C-29.3 -27.9 -29.5 -33.1 -26.7 -33.5C-23.8 -33.8 -17.8 -29.3 -14.8 -30.6C-11.7 -32 -11.6 -39.1 -9.6 -42.2C-7.7 -45.3 -3.8 -44.3 0 -43.3L0 0Z" fill="#9546f0"></path></g><g transform="translate(0, 0)"><path d="M216.3 0C218.3 17.2 220.3 34.4 210.9 48.1C201.5 61.9 180.8 72.3 164 79C147.1 85.6 134.2 88.6 131.3 104.7C128.5 120.9 135.9 150.2 127.2 159.5C118.5 168.8 93.9 158.2 78.5 163.1C63.2 168 57.2 188.4 45.6 199.9C34.1 211.3 17 213.8 0 216.3L0 0Z" fill="#211e35"></path><path d="M173.1 0C174.6 13.7 176.2 27.5 168.7 38.5C161.2 49.5 144.7 57.8 131.2 63.2C117.7 68.5 107.3 70.9 105.1 83.8C102.8 96.7 108.7 120.1 101.8 127.6C94.8 135.1 75.1 126.5 62.8 130.5C50.6 134.4 45.7 150.7 36.5 159.9C27.3 169.1 13.6 171.1 0 173.1L0 0Z" fill="#382d69"></path><path d="M129.8 0C131 10.3 132.2 20.6 126.5 28.9C120.9 37.1 108.5 43.4 98.4 47.4C88.3 51.4 80.5 53.2 78.8 62.8C77.1 72.5 81.5 90.1 76.3 95.7C71.1 101.3 56.3 94.9 47.1 97.8C37.9 100.8 34.3 113 27.4 119.9C20.4 126.8 10.2 128.3 0 129.8L0 0Z" fill="#563b9f"></path><path d="M86.5 0C87.3 6.9 88.1 13.7 84.4 19.3C80.6 24.8 72.3 28.9 65.6 31.6C58.9 34.3 53.7 35.4 52.5 41.9C51.4 48.4 54.3 60.1 50.9 63.8C47.4 67.5 37.6 63.3 31.4 65.2C25.3 67.2 22.9 75.4 18.2 79.9C13.6 84.5 6.8 85.5 0 86.5L0 0Z" fill="#7e44d5"></path><path d="M43.3 0C43.7 3.4 44.1 6.9 42.2 9.6C40.3 12.4 36.2 14.5 32.8 15.8C29.4 17.1 26.8 17.7 26.3 20.9C25.7 24.2 27.2 30 25.4 31.9C23.7 33.8 18.8 31.6 15.7 32.6C12.6 33.6 11.4 37.7 9.1 40C6.8 42.3 3.4 42.8 0 43.3L0 0Z" fill="#9546f0"></path></g></svg>