<svg id="visual" viewBox="0 0 900 600" width="900" height="600" xmlns="http://www.w3.org/2000/svg" xmlns:xlink="http://www.w3.org/1999/xlink" version="1.1"><rect x="0" y="0" width="900" height="600" fill="#17161d"></rect><defs><linearGradient id="grad1_0" x1="33.3%" y1="100%" x2="100%" y2="0%"><stop offset="20%" stop-color="#17161d" stop-opacity="1"></stop><stop offset="80%" stop-color="#17161d" stop-opacity="1"></stop></linearGradient></defs><defs><linearGradient id="grad2_0" x1="0%" y1="100%" x2="66.7%" y2="0%"><stop offset="20%" stop-color="#17161d" stop-opacity="1"></stop><stop offset="80%" stop-color="#17161d" stop-opacity="1"></stop></linearGradient></defs><g transform="translate(900, 600)"><path d="M-513.8 0C-443.1 -32.7 -372.5 -65.4 -366.2 -119C-359.9 -172.6 -417.9 -247 -415.7 -302C-413.4 -357 -350.8 -392.4 -293.3 -403.7C-235.8 -415 -183.4 -402.2 -135.3 -416.6C-87.3 -430.9 -43.7 -472.3 0 -513.8L0 0Z" fill="#7950F2"></path></g><g transform="translate(0, 0)"><path d="M513.8 0C515.6 59 517.3 118 488.6 158.8C459.9 199.6 400.8 222.2 368.9 268C337 313.9 332.5 383 296.2 407.7C260 432.5 192.2 412.9 137.5 423.2C82.9 433.5 41.4 473.6 0 513.8L0 0Z" fill="#17161d"></path></g></svg>