<svg xmlns="http://www.w3.org/2000/svg" xmlns:xlink="http://www.w3.org/1999/xlink" width="900" height="600" version="1.1" style=""><rect id="backgroundrect" width="100%" height="100%" x="0" y="0" fill="none" stroke="none"/><defs><linearGradient id="grad1_0" x1="33.3%" y1="100%" x2="100%" y2="0%"><stop offset="20%" stop-color="#9546f0" stop-opacity="1"/><stop offset="80%" stop-color="#9546f0" stop-opacity="1"/></linearGradient></defs><defs><linearGradient id="grad1_1" x1="33.3%" y1="100%" x2="100%" y2="0%"><stop offset="20%" stop-color="#9546f0" stop-opacity="1"/><stop offset="80%" stop-color="#6940ba" stop-opacity="1"/></linearGradient></defs><defs><linearGradient id="grad1_2" x1="33.3%" y1="100%" x2="100%" y2="0%"><stop offset="20%" stop-color="#463484" stop-opacity="1"/><stop offset="80%" stop-color="#6940ba" stop-opacity="1"/></linearGradient></defs><defs><linearGradient id="grad1_3" x1="33.3%" y1="100%" x2="100%" y2="0%"><stop offset="20%" stop-color="#463484" stop-opacity="1"/><stop offset="80%" stop-color="#2c264f" stop-opacity="1"/></linearGradient></defs><defs><linearGradient id="grad1_4" x1="33.3%" y1="100%" x2="100%" y2="0%"><stop offset="20%" stop-color="#17161d" stop-opacity="1"/><stop offset="80%" stop-color="#2c264f" stop-opacity="1"/></linearGradient></defs><defs><linearGradient id="grad2_0" x1="0%" y1="100%" x2="66.7%" y2="0%"><stop offset="20%" stop-color="#9546f0" stop-opacity="1"/><stop offset="80%" stop-color="#9546f0" stop-opacity="1"/></linearGradient></defs><defs><linearGradient id="grad2_1" x1="0%" y1="100%" x2="66.7%" y2="0%"><stop offset="20%" stop-color="#6940ba" stop-opacity="1"/><stop offset="80%" stop-color="#9546f0" stop-opacity="1"/></linearGradient></defs><defs><linearGradient id="grad2_2" x1="0%" y1="100%" x2="66.7%" y2="0%"><stop offset="20%" stop-color="#6940ba" stop-opacity="1"/><stop offset="80%" stop-color="#463484" stop-opacity="1"/></linearGradient></defs><defs><linearGradient id="grad2_3" x1="0%" y1="100%" x2="66.7%" y2="0%"><stop offset="20%" stop-color="#2c264f" stop-opacity="1"/><stop offset="80%" stop-color="#463484" stop-opacity="1"/></linearGradient></defs><defs><linearGradient id="grad2_4" x1="0%" y1="100%" x2="66.7%" y2="0%"><stop offset="20%" stop-color="#2c264f" stop-opacity="1"/><stop offset="80%" stop-color="#17161d" stop-opacity="1"/></linearGradient></defs><g class="currentLayer" style=""><title>Layer 1</title><rect x="-3.1413609981536865" y="-1.0471203327178955" width="900" height="600" fill="#17161d" id="svg_1" class="" opacity="0"/><g id="svg_8"><path d="M216.3 0C218.3 17.2 220.3 34.4 210.9 48.1C201.5 61.9 180.8 72.3 164 79C147.1 85.6 134.2 88.6 131.3 104.7C128.5 120.9 135.9 150.2 127.2 159.5C118.5 168.8 93.9 158.2 78.5 163.1C63.2 168 57.2 188.4 45.6 199.9C34.1 211.3 17 213.8 0 216.3L0 0Z" fill="#211e35" id="svg_9"/><path d="M173.1 0C174.6 13.7 176.2 27.5 168.7 38.5C161.2 49.5 144.7 57.8 131.2 63.2C117.7 68.5 107.3 70.9 105.1 83.8C102.8 96.7 108.7 120.1 101.8 127.6C94.8 135.1 75.1 126.5 62.8 130.5C50.6 134.4 45.7 150.7 36.5 159.9C27.3 169.1 13.6 171.1 0 173.1L0 0Z" fill="#382d69" id="svg_10"/><path d="M129.8 0C131 10.3 132.2 20.6 126.5 28.9C120.9 37.1 108.5 43.4 98.4 47.4C88.3 51.4 80.5 53.2 78.8 62.8C77.1 72.5 81.5 90.1 76.3 95.7C71.1 101.3 56.3 94.9 47.1 97.8C37.9 100.8 34.3 113 27.4 119.9C20.4 126.8 10.2 128.3 0 129.8L0 0Z" fill="#563b9f" id="svg_11"/><path d="M86.5 0C87.3 6.9 88.1 13.7 84.4 19.3C80.6 24.8 72.3 28.9 65.6 31.6C58.9 34.3 53.7 35.4 52.5 41.9C51.4 48.4 54.3 60.1 50.9 63.8C47.4 67.5 37.6 63.3 31.4 65.2C25.3 67.2 22.9 75.4 18.2 79.9C13.6 84.5 6.8 85.5 0 86.5L0 0Z" fill="#7e44d5" id="svg_12"/><path d="M43.3 0C43.7 3.4 44.1 6.9 42.2 9.6C40.3 12.4 36.2 14.5 32.8 15.8C29.4 17.1 26.8 17.7 26.3 20.9C25.7 24.2 27.2 30 25.4 31.9C23.7 33.8 18.8 31.6 15.7 32.6C12.6 33.6 11.4 37.7 9.1 40C6.8 42.3 3.4 42.8 0 43.3L0 0Z" fill="#9546f0" id="svg_13"/></g></g></svg>