<svg width="900" height="600" xmlns="http://www.w3.org/2000/svg" version="1.1">


 <g class="currentLayer">
  <title>Layer 1</title>
  <path id="svg_3" fill="#7950F2" d="m385.52432,600c70.7,-32.7 141.3,-65.4 147.6,-119c6.3,-53.6 -51.7,-128 -49.5,-183c2.3,-55 64.9,-90.4 122.4,-101.7c57.5,-11.3 109.9,1.5 158,-12.9c48,-14.3 91.6,-55.7 135.3,-97.2l0,513.8l-513.8,0z"/>
 </g>
 <g>
  <title>Layer 2</title>
  <rect fill="none" y="0" x="0" height="100%" width="100%" id="backgroundrect"/>
  <g>
   <rect fill="none" y="0.52356" x="1.57068" height="600" width="900" id="svg_19"/>










   <g class="currentLayer">
    <title>Layer 1</title>
    <rect opacity="0" id="svg_8" fill="#17161d" height="600" width="900" y="-0.52356" x="-1.57068"/>
    <g id="svg_1">
     <path id="svg_7" fill="#211e35" d="m217.87068,0.52356c2,17.2 4,34.4 -5.4,48.1c-9.4,13.8 -30.1,24.2 -46.9,30.9c-16.9,6.6 -29.8,9.6 -32.7,25.7c-2.8,16.2 4.6,45.5 -4.1,54.8c-8.7,9.3 -33.3,-1.3 -48.7,3.6c-15.3,4.9 -21.3,25.3 -32.9,36.8c-11.5,11.4 -28.6,13.9 -45.6,16.4l0,-216.3l216.3,0z"/>
     <path id="svg_6" fill="#382d69" d="m174.67068,0.52356c1.5,13.7 3.1,27.5 -4.4,38.5c-7.5,11 -24,19.3 -37.5,24.7c-13.5,5.3 -23.9,7.7 -26.1,20.6c-2.3,12.9 3.6,36.3 -3.3,43.8c-7,7.5 -26.7,-1.1 -39,2.9c-12.2,3.9 -17.1,20.2 -26.3,29.4c-9.2,9.2 -22.9,11.2 -36.5,13.2l0,-173.1l173.1,0z"/>
     <path id="svg_5" fill="#563b9f" d="m131.37068,0.52356c1.2,10.3 2.4,20.6 -3.3,28.9c-5.6,8.2 -18,14.5 -28.1,18.5c-10.1,4 -17.9,5.8 -19.6,15.4c-1.7,9.7 2.7,27.3 -2.5,32.9c-5.2,5.6 -20,-0.8 -29.2,2.1c-9.2,3 -12.8,15.2 -19.7,22.1c-7,6.9 -17.2,8.4 -27.4,9.9l0,-129.8l129.8,0z"/>
     <path id="svg_4" fill="#7e44d5" d="m88.07068,0.52356c0.8,6.9 1.6,13.7 -2.1,19.3c-3.8,5.5 -12.1,9.6 -18.8,12.3c-6.7,2.7 -11.9,3.8 -13.1,10.3c-1.1,6.5 1.8,18.2 -1.6,21.9c-3.5,3.7 -13.3,-0.5 -19.5,1.4c-6.1,2 -8.5,10.2 -13.2,14.7c-4.6,4.6 -11.4,5.6 -18.2,6.6l0,-86.5l86.5,0z"/>
     <path id="svg_2" fill="#9546f0" d="m44.87068,0.52356c0.4,3.4 0.8,6.9 -1.1,9.6c-1.9,2.8 -6,4.9 -9.4,6.2c-3.4,1.3 -6,1.9 -6.5,5.1c-0.6,3.3 0.9,9.1 -0.9,11c-1.7,1.9 -6.6,-0.3 -9.7,0.7c-3.1,1 -4.3,5.1 -6.6,7.4c-2.3,2.3 -5.7,2.8 -9.1,3.3l0,-43.3l43.3,0z"/>
    </g>
   </g>
  </g>
 </g>
</svg>